<svg width="80" height="77" viewBox="0 0 80 77" fill="none" xmlns="http://www.w3.org/2000/svg">
<path d="M2.58225 59.3413H19.3669V60.6324H7.74676C3.48604 60.6324 0 64.1185 0 68.3792C0 72.6399 3.48604 76.126 7.74676 76.126H46.4806C50.7413 76.126 54.2273 72.6399 54.2273 68.3792C54.2273 64.1185 50.7413 60.6324 46.4806 60.6324H34.8604V59.3413H41.316C43.8337 59.3413 45.835 57.3401 45.835 54.8224V46.8819C45.835 45.5263 45.4477 44.1706 44.8021 43.0086L41.2515 36.8757L55.2602 15.1848L72.1094 44.1706C72.6904 45.1389 73.5942 45.849 74.6917 46.1073C75.079 46.1718 75.4018 46.2364 75.7891 46.2364C75.8537 46.2364 75.9182 46.2364 75.9828 46.2364V49.206L57.4551 53.273L55.8412 50.368L53.5817 51.6591L57.9716 59.535C60.7475 64.5058 65.9766 67.4109 71.3993 67.4109C72.6259 67.4109 73.8524 67.2817 75.1436 66.959C77.1448 66.4425 78.565 64.6349 78.565 62.5691V45.268C80.0498 43.9769 80.4372 41.782 79.4688 40.039L60.8766 6.46968C61.845 4.53299 61.264 2.14441 59.4564 0.853282C57.5197 -0.566957 54.8083 -0.179619 53.3235 1.75707L33.4402 27.0632C33.3111 27.0632 33.1174 27.0632 32.9883 27.0632H19.3669V36.7466H11.6201C10.1999 36.7466 9.03789 37.9086 9.03789 39.3289V43.2022H2.58225C1.16201 43.2022 0 44.3642 0 45.7845V56.7591C0 58.1793 1.16201 59.3413 2.58225 59.3413ZM75.9182 62.6337C75.9182 63.5375 75.3372 64.3121 74.4334 64.5058C68.817 65.9261 62.9424 63.3438 60.1665 58.3084L58.6817 55.6616L75.9182 51.8528V62.6337ZM51.6451 68.3792C51.6451 71.2197 49.321 73.5437 46.4806 73.5437H7.74676C4.90628 73.5437 2.58225 71.2197 2.58225 68.3792C2.58225 65.5387 4.90628 63.2147 7.74676 63.2147H46.4806C49.321 63.2147 51.6451 65.5387 51.6451 68.3792ZM32.2782 60.6324H21.9492V59.3413H32.2782V60.6324ZM43.2527 46.8819V50.6908L27.3719 47.5921C26.4681 47.3984 25.8225 46.6237 25.8225 45.7199V29.6454H32.9883C33.6984 29.6454 34.344 30.0327 34.6667 30.6137L42.5426 44.2997C42.9945 45.0744 43.2527 45.9781 43.2527 46.8819ZM76.5638 43.525C76.1765 43.7187 75.7246 43.7832 75.3372 43.7187C74.8853 43.5896 74.5626 43.3313 74.3043 42.944L56.8096 12.7962L59.2627 8.98738L77.2094 41.2655C77.5967 42.0402 77.3385 43.0731 76.5638 43.525ZM55.3893 3.30642C56.0349 2.53175 57.1324 2.33808 57.9716 2.91908C58.8108 3.50009 59.0045 4.59755 58.488 5.50134L39.8313 34.358L36.9262 29.3226C36.668 28.8707 36.3452 28.4834 35.9579 28.1606L55.3893 3.30642ZM21.9492 29.6454H23.2403V45.7199C23.2403 47.9148 24.7896 49.7224 26.92 50.1743L43.2527 53.273V54.8224C43.2527 55.9198 42.4135 56.7591 41.316 56.7591H21.9492V29.6454ZM11.6201 39.3289H19.3669V43.2022H11.6201V39.3289ZM2.58225 45.7845H4.51894V50.3034H7.1012V45.7845H19.3669V56.7591H2.58225V45.7845Z" fill="black"/>
</svg>
