<svg width="75" height="65" viewBox="0 0 75 65" fill="none" xmlns="http://www.w3.org/2000/svg">
<path d="M21.7838 31.6673C14.9945 31.6673 9.52539 37.1365 9.52539 43.9258C9.52539 50.7151 14.9945 56.1842 21.7838 56.1842C28.5731 56.1842 34.0423 50.7151 34.0423 43.9258C34.0423 37.1365 28.5731 31.6673 21.7838 31.6673ZM21.7838 53.6697C16.4404 53.6697 12.0399 49.2692 12.0399 43.9258C12.0399 38.5823 16.4404 34.1819 21.7838 34.1819C27.1273 34.1819 31.5277 38.5823 31.5277 43.9258C31.5277 49.2692 27.1901 53.6697 21.7838 53.6697Z" fill="black"/>
<path d="M21.7843 39.5253C19.3326 39.5253 17.3838 41.474 17.3838 43.9257C17.3838 46.3774 19.3326 48.3262 21.7843 48.3262C24.2359 48.3262 26.1847 46.3774 26.1847 43.9257C26.1847 41.474 24.2359 39.5253 21.7843 39.5253ZM21.7843 45.8117C20.7156 45.8117 19.8983 44.9944 19.8983 43.9257C19.8983 42.8571 20.7156 42.0398 21.7843 42.0398C22.8529 42.0398 23.6702 42.8571 23.6702 43.9257C23.6702 44.9944 22.8529 45.8117 21.7843 45.8117Z" fill="black"/>
<path d="M63.8399 49.7092C61.3882 49.7092 59.4395 51.6579 59.4395 54.1096C59.4395 56.5613 61.3882 58.5101 63.8399 58.5101C66.2916 58.5101 68.2404 56.5613 68.2404 54.1096C68.2404 51.6579 66.2916 49.7092 63.8399 49.7092ZM63.8399 55.9956C62.7712 55.9956 61.954 55.1783 61.954 54.1096C61.954 53.041 62.7712 52.2237 63.8399 52.2237C64.9086 52.2237 65.7258 53.041 65.7258 54.1096C65.7258 55.1783 64.9086 55.9956 63.8399 55.9956Z" fill="black"/>
<path d="M73.1736 46.3935H72.1677V33.1293C72.1677 29.2317 69.0245 26.0885 65.127 26.0885H57.5204V1.25728H55.0059V26.0885H51.4855L46.8965 5.53202C46.1421 2.2631 43.3132 0 39.9814 0H12.8871V2.51455H14.2072L10.2468 20.305H7.16648C5.97207 20.305 4.90338 20.7451 4.02329 21.6252C3.20606 22.4424 2.76601 23.574 2.76601 24.7684V34.638C1.00582 37.5926 0 41.0501 0 44.7591C0 55.8231 9.0524 64.8755 20.1164 64.8755C27.6601 64.8755 34.1979 60.7265 37.6555 54.5658V54.6916H44.1304H44.7591H52.2399C52.2399 54.7544 52.2399 54.8173 52.2399 54.8802C52.2399 60.3493 56.7032 64.8127 62.1724 64.8127C67.6415 64.8127 72.1049 60.3493 72.1049 54.8802C72.1049 54.8173 72.1049 54.7544 72.1049 54.6916H73.1107C74.1794 54.6916 74.9966 53.8743 74.9966 52.8056V48.2795C75.0595 47.2736 74.2422 46.3935 73.1736 46.3935ZM48.9081 26.0885H36.0839C31.8091 22.5053 26.2771 20.305 20.305 20.305H20.2422L23.1968 7.16648H44.6962L48.9081 26.0885ZM16.7847 2.51455H39.9814C41.6159 2.51455 42.9989 3.33179 43.8161 4.65193H21.1223L17.6647 20.305H12.8242L16.7847 2.51455ZM20.1164 62.361C10.4354 62.361 2.51456 54.4401 2.51456 44.7591C2.51456 41.3016 3.52038 38.0955 5.2177 35.3924H5.28057V35.2666C8.42376 30.4261 13.8929 27.1572 20.1164 27.1572C29.7975 27.1572 37.7183 35.078 37.7183 44.7591C37.7183 54.4401 29.8603 62.361 20.1164 62.361ZM42.2445 52.177H38.787C39.73 49.851 40.2329 47.3365 40.2329 44.7591C40.2329 33.695 31.1805 24.6426 20.1164 24.6426C14.2701 24.6426 8.98953 27.1572 5.28057 31.1805V24.7055C5.28057 24.2026 5.46916 23.6997 5.84634 23.3854C6.22352 23.071 6.66357 22.8196 7.16648 22.8196H20.305C32.4378 22.8196 42.2445 32.6892 42.2445 44.7591V52.177ZM44.7591 52.177V44.7591C44.7591 38.5984 42.4331 32.9407 38.6613 28.6031H58.9663V33.8208H61.4809V28.6031H63.3668V33.8208H65.8813V28.6659C68.0187 29.0431 69.6532 30.929 69.6532 33.1293V46.3935H67.3901C65.8813 45.4506 64.1212 44.9477 62.2352 44.9477C57.709 44.9477 53.8115 48.028 52.6799 52.177H44.7591ZM62.1724 62.361C58.0862 62.361 54.7544 59.0292 54.7544 54.943C54.7544 50.8569 58.0862 47.5251 62.1724 47.5251C66.2585 47.5251 69.5903 50.8569 69.5903 54.943C69.6532 59.0292 66.3214 62.361 62.1724 62.361ZM72.5449 52.177H71.7906C71.4762 50.9826 70.9104 49.8511 70.1561 48.9081H72.5449V52.177Z" fill="black"/>
</svg>
