<svg width="90" height="47" viewBox="0 0 90 47" fill="none" xmlns="http://www.w3.org/2000/svg">
<path d="M76.2712 0H61.017V31.9613H67.2639C66.1743 33.1961 65.4479 34.6489 65.1574 36.3196H62.4697V33.414H49.1768V36.3196H45.9806C45.6901 34.6489 44.9637 33.1961 43.8741 31.9613H58.8378V0H0V31.9613H9.15254C7.7724 33.4867 6.90073 35.5206 6.90073 37.7724C6.90073 42.5666 10.8232 46.4891 15.6174 46.4891C19.9031 46.4891 23.5351 43.3656 24.1889 39.2252H28.8378C29.5642 43.3656 33.1235 46.4891 37.4092 46.4891C41.6949 46.4891 45.3269 43.3656 45.9806 39.2252H49.1768V42.1307H62.4697V39.2252H65.1574C65.8838 43.3656 69.4431 46.4891 73.7288 46.4891C78.0145 46.4891 81.6465 43.3656 82.3002 39.2252H84.9153C87.7482 39.2252 90 36.9734 90 34.1404V21.138L84.4068 5.66586C83.2446 2.32446 79.9032 0 76.2712 0ZM2.90557 2.90557H13.0751V18.1598H15.9806V2.90557H27.6029V18.1598H30.5085V2.90557H42.1308V18.1598H45.0363V2.90557H55.9322V29.0557H2.90557V2.90557ZM22.155 31.9613H31.017C29.9274 33.1961 29.201 34.6489 28.9104 36.3196H24.2615C23.9709 34.6489 23.1719 33.1961 22.155 31.9613ZM15.6174 43.5835C12.4213 43.5835 9.8063 40.9685 9.8063 37.7724C9.8063 34.5763 12.4213 31.9613 15.6174 31.9613C18.8136 31.9613 21.4286 34.5763 21.4286 37.7724C21.4286 40.9685 18.8136 43.5835 15.6174 43.5835ZM37.4092 43.5835C34.2131 43.5835 31.5981 40.9685 31.5981 37.7724C31.5981 34.5763 34.2131 31.9613 37.4092 31.9613C40.6053 31.9613 43.2203 34.5763 43.2203 37.7724C43.2203 40.9685 40.678 43.5835 37.4092 43.5835ZM59.5642 39.2252H52.0823V36.3196H59.5642V39.2252ZM81.937 7.26392L86.5133 19.9031L77.2881 18.0872C76.2712 17.8692 75.5448 16.9976 75.5448 15.9806V7.26392H81.937ZM73.7288 43.5835C70.5327 43.5835 67.9177 40.9685 67.9177 37.7724C67.9177 34.5763 70.5327 31.9613 73.7288 31.9613C76.9249 31.9613 79.54 34.5763 79.54 37.7724C79.54 40.9685 76.9976 43.5835 73.7288 43.5835ZM84.9879 36.3196H82.3729C81.7191 32.3245 78.3051 29.201 74.092 29.0557H63.9225V2.90557H76.2712C77.724 2.90557 79.0315 3.48668 80.1211 4.35835H72.6392V15.908C72.6392 18.3051 74.3826 20.4116 76.707 20.9201L87.1671 23.0266V34.1404C87.1671 35.3753 86.2228 36.3196 84.9879 36.3196Z" fill="black"/>
</svg>
