<svg width="64" height="64" viewBox="0 0 64 64" fill="none" xmlns="http://www.w3.org/2000/svg">
<path d="M63.482 26.734C63.3784 26.1392 62.8604 25.6737 62.2647 25.6478C62.2388 25.6478 62.1352 25.6478 62.1093 25.6478H60.9178C59.9077 25.6478 58.8717 25.6478 57.8357 25.6478C57.1882 22.9583 56.1263 20.4239 54.6758 18.0446L55.0384 17.6826C55.945 16.7775 56.8515 15.8464 57.7839 14.9672C58.2501 14.5275 58.3019 13.8034 57.9393 13.2862C55.8932 10.4415 53.4067 7.98464 50.5577 5.94161C50.0397 5.57955 49.3144 5.63128 48.8741 6.09678C48.382 6.614 47.864 7.10536 47.3719 7.59673C46.828 8.11395 46.31 8.65704 45.792 9.20012C43.4091 7.75189 40.845 6.71745 38.1514 6.07092C38.1514 5.70886 38.1514 5.32094 38.1514 4.95889V4.33822C38.1514 4.28649 38.1514 4.23477 38.1514 4.18305V3.43307C38.1514 2.88999 38.1514 2.32104 38.1514 1.70037C38.1514 1.05384 37.6851 0.510759 37.0635 0.407314C33.6965 -0.135771 30.1999 -0.135771 26.8329 0.407314C26.1853 0.510759 25.7191 1.10557 25.745 1.77796C25.7709 2.32104 25.7709 2.88999 25.745 3.43307V4.18305C25.745 4.23477 25.745 4.28649 25.745 4.33822V4.95889C25.745 5.3468 25.745 5.70886 25.745 6.07092C23.0514 6.71745 20.4873 7.75189 18.1044 9.20012C17.5864 8.65704 17.0425 8.13981 16.5245 7.59673C16.0324 7.10536 15.5144 6.58814 15.0223 6.09678C14.582 5.63128 13.8567 5.57955 13.3387 5.94161C10.4897 7.98464 8.00324 10.4673 5.9571 13.2862C5.5686 13.8034 5.6463 14.5275 6.1125 14.9672C7.04492 15.8723 7.95144 16.7775 8.85795 17.6826L9.22056 18.0446C7.77013 20.398 6.70821 22.9583 6.0607 25.6478C5.02469 25.622 3.98867 25.622 2.97855 25.6478H1.78713C1.76123 25.6478 1.65763 25.6478 1.63173 25.6478C1.01012 25.6737 0.492108 26.1392 0.414407 26.734C0.129502 28.4409 0 30.1994 0 31.958C0 33.6907 0.129502 35.4492 0.414407 37.1561C0.518009 37.7509 0.984217 38.1905 1.57993 38.2422C1.68353 38.2422 1.81303 38.2681 1.91663 38.2681C2.79725 38.2681 3.65196 38.2681 4.53258 38.2681C5.05059 38.2681 5.5686 38.2681 6.0866 38.2681C6.73412 40.9835 7.82193 43.5697 9.29826 45.9489C8.70255 46.5178 8.10684 47.1126 7.53703 47.7074L6.55281 48.6902C6.39741 48.8453 6.26791 48.9746 6.16431 49.0781C5.7499 49.5436 5.6981 50.216 6.0607 50.7073C8.10684 53.5262 10.5674 55.9572 13.3905 58.0002C13.8826 58.3623 14.582 58.3105 15.0223 57.8968C15.0741 57.845 15.1259 57.7933 15.1518 57.7675C15.7475 57.1468 16.3432 56.552 16.9389 55.9572C17.3274 55.5692 17.7418 55.1555 18.1303 54.7676C20.5132 56.2158 23.0773 57.2761 25.7968 57.9226C25.7968 58.6467 25.7968 59.3708 25.7968 60.1208C25.7968 60.8191 25.7968 61.4915 25.7968 62.2156C25.7968 62.2414 25.7968 62.3707 25.7968 62.3966C25.8227 62.9914 26.2889 63.5086 26.8847 63.5862C28.5423 63.8448 30.2776 64 31.987 64C33.6965 64 35.4059 63.8707 37.0894 63.5862C37.6852 63.4828 38.1514 62.9914 38.1773 62.3966C38.1773 62.3707 38.1773 62.2156 38.1773 62.1897C38.1773 61.4915 38.1773 60.8191 38.1773 60.1208C38.1773 59.3967 38.1773 58.6726 38.1773 57.9226C40.8968 57.2761 43.4609 56.2158 45.8438 54.7676C46.2323 55.1813 46.6467 55.5692 47.0352 55.9572C47.6309 56.552 48.2266 57.1468 48.8223 57.7416C48.8741 57.7933 48.9259 57.845 48.9777 57.8968C49.444 58.3105 50.1174 58.3623 50.6095 58.0002C53.4326 55.983 55.9191 53.5262 57.9393 50.7073C58.3019 50.216 58.2501 49.5177 57.8357 49.0781C57.7321 48.9746 57.6026 48.8195 57.4472 48.6902L56.463 47.7074C55.8932 47.1385 55.2975 46.5437 54.7017 45.9489C56.1781 43.5697 57.24 40.9835 57.9134 38.2681C58.4314 38.2681 58.9494 38.2681 59.4674 38.2681C60.348 38.2681 61.2028 38.2681 62.0575 38.2681C62.187 38.2681 62.3165 38.2681 62.4201 38.2681C63.0158 38.2164 63.482 37.7767 63.5856 37.1819C63.8705 35.4751 64 33.7424 64 31.9838C63.8964 30.1994 63.7669 28.4667 63.482 26.734ZM61.0732 35.6303C60.5034 35.6303 59.9336 35.6303 59.3638 35.6303C58.5609 35.6303 57.758 35.6303 56.9292 35.6303C56.8256 35.6303 56.7479 35.6303 56.6702 35.6303C56.0745 35.682 55.6083 36.0958 55.4788 36.6647C54.8571 39.7681 53.6398 42.6904 51.8527 45.3282C51.5419 45.7679 51.5678 46.3627 51.8527 46.8023C51.9563 46.9575 52.0858 47.1126 52.2671 47.2678C53.0182 47.9919 53.7693 48.7419 54.5204 49.4919L55.0643 50.035C53.5621 51.9487 51.8268 53.6814 49.8843 55.1813C49.5217 54.8193 49.1331 54.4314 48.7705 54.0693C48.2007 53.5004 47.6568 52.9573 47.087 52.3883C46.9316 52.2332 46.7762 52.078 46.5949 51.9745C46.1546 51.6901 45.6107 51.6901 45.1704 51.9745C42.5285 53.7331 39.6277 54.9227 36.5455 55.5175C36.0534 55.621 35.6649 55.983 35.5354 56.4744C35.4836 56.7071 35.4577 56.9658 35.4577 57.2502C35.4836 58.1812 35.4836 59.0864 35.4836 60.0174C35.4836 60.3794 35.4836 60.7156 35.4836 61.0777C33.1267 61.3622 30.692 61.3622 28.3092 61.0777C28.3092 60.7156 28.3092 60.3794 28.3092 60.0174C28.3092 59.0864 28.3092 58.1812 28.3351 57.2502C28.3351 56.9658 28.3092 56.7071 28.2574 56.4744C28.1279 55.983 27.7394 55.5951 27.2473 55.5175C24.1392 54.9227 21.2384 53.7331 18.6224 51.9745C18.1821 51.6901 17.6382 51.6901 17.1979 51.9745C17.0166 52.078 16.8612 52.2332 16.7058 52.3883C16.1619 52.9573 15.5921 53.5262 15.0223 54.0693C14.6597 54.4314 14.2711 54.7934 13.9085 55.1813C11.966 53.6814 10.2307 51.9487 8.72845 50.035L9.27236 49.4919C10.0235 48.7419 10.7487 47.9919 11.5257 47.2678C11.6811 47.1126 11.8106 46.9575 11.9142 46.8023C12.225 46.3627 12.225 45.7937 11.9142 45.3282C10.1271 42.6904 8.90975 39.7681 8.28814 36.6647C8.18454 36.0958 7.69243 35.6561 7.09672 35.6303C7.01902 35.6303 6.91542 35.6044 6.81182 35.6303C6.0089 35.6303 5.20599 35.6303 4.40308 35.6303C3.83327 35.6303 3.28936 35.6303 2.69365 35.6303C2.53824 34.4148 2.46054 33.1735 2.46054 31.958C2.46054 30.7166 2.53824 29.4753 2.69365 28.2598H2.87495C4.04047 28.2598 5.25779 28.2598 6.44921 28.2857C6.78592 28.2857 7.07082 28.2598 7.32983 28.2081C7.82193 28.0788 8.18454 27.6909 8.26224 27.1995C8.88385 24.1479 10.0753 21.2773 11.8106 18.6653C12.0955 18.2257 12.0955 17.6826 11.8365 17.243C11.6552 16.9585 11.4221 16.7257 11.1113 16.4154L10.5933 15.8982C9.94577 15.2516 9.29826 14.6051 8.65075 13.9586C10.1789 11.9673 11.9401 10.2346 13.9085 8.70876C14.1416 8.94151 14.4006 9.20012 14.6338 9.43287C15.2813 10.0794 15.9288 10.7259 16.5504 11.3725C16.7317 11.5535 17.0166 11.8121 17.4051 11.9931C17.8195 12.1742 18.2857 12.1224 18.6483 11.8897C21.2643 10.157 24.1392 8.96737 27.2214 8.37256C27.7135 8.26912 28.102 7.90706 28.2315 7.44156C28.2833 7.20881 28.3092 6.97606 28.3092 6.69159C28.2833 6.09678 28.2833 5.52783 28.3092 4.93302V4.13133C28.3092 4.0796 28.3092 4.02788 28.3092 3.97616V3.40721C28.3092 3.20032 28.3092 2.99343 28.3092 2.78654C30.692 2.50207 33.1008 2.50207 35.4836 2.78654C35.4836 2.99343 35.4836 3.20032 35.4836 3.40721V3.97616C35.4836 4.02788 35.4836 4.0796 35.4836 4.13133V4.93302C35.4836 5.52783 35.4836 6.09678 35.4836 6.69159C35.4836 6.97606 35.5095 7.20881 35.5613 7.44156C35.6908 7.90706 36.0793 8.29498 36.5714 8.37256C39.6536 8.96737 42.5285 10.157 45.1445 11.8897C45.5071 12.1224 45.9733 12.1742 46.3877 11.9931C46.7762 11.8121 47.0611 11.5535 47.2424 11.3725C47.864 10.7259 48.5115 10.0794 49.159 9.43287C49.3921 9.20012 49.6512 8.94151 49.8843 8.70876C51.8527 10.2346 53.6139 11.9673 55.1161 13.9069C54.4686 14.5534 53.8211 15.1999 53.1736 15.8464L52.6556 16.3637C52.3448 16.674 52.1117 16.9068 51.9304 17.1912C51.6455 17.6309 51.6714 18.174 51.9563 18.6136C53.6916 21.2256 54.883 24.0962 55.5047 27.1478C55.6083 27.6392 55.9709 28.0271 56.4371 28.1564C56.6961 28.234 56.981 28.2598 57.3177 28.234C58.5091 28.1822 59.7264 28.2081 60.8919 28.2081H61.0732C61.2287 29.4236 61.3064 30.6908 61.3064 31.9063C61.3064 33.1993 61.2287 34.4148 61.0732 35.6303Z" fill="black"/>
<path d="M45.5322 22.1566C44.4703 20.6566 43.1494 19.3636 41.6471 18.3033C39.5492 16.8033 37.0887 15.7947 34.5504 15.381C32.7892 15.0965 30.9503 15.0965 29.189 15.381C26.6508 15.7947 24.1902 16.8033 22.0923 18.3033C20.5901 19.3636 19.2951 20.6825 18.2072 22.1566C16.705 24.2513 15.6949 26.6823 15.2546 29.2167C15.0992 30.1218 15.0215 31.027 15.0215 31.958C15.0215 32.8631 15.0992 33.7941 15.2287 34.6734C15.6431 37.2337 16.6791 39.6905 18.2072 41.7852C19.2692 43.2593 20.5642 44.5524 22.0664 45.6127C24.1643 47.1126 26.6249 48.1212 29.1631 48.535C30.0437 48.6643 30.9503 48.7419 31.8309 48.7419C32.7115 48.7419 33.618 48.6643 34.4986 48.535C37.0369 48.1212 39.4974 47.1126 41.5953 45.6127C43.0717 44.5524 44.3667 43.2593 45.4545 41.7852C46.9826 39.6905 48.0187 37.2337 48.4331 34.6734C48.5885 33.7683 48.6403 32.8631 48.6403 31.958C48.6403 31.027 48.5626 30.1218 48.4072 29.2167C48.0704 26.6823 47.0344 24.2513 45.5322 22.1566ZM45.9207 34.2596C45.5581 36.4061 44.7034 38.5009 43.4084 40.2594C42.5019 41.5008 41.414 42.5869 40.1449 43.4921C38.3837 44.7593 36.3116 45.6127 34.1619 45.9489C32.6597 46.1816 31.1316 46.1816 29.6293 45.9489C27.4796 45.6127 25.4076 44.7593 23.6204 43.4921C22.3772 42.5869 21.2635 41.5008 20.357 40.2594C19.062 38.475 18.2072 36.4061 17.8446 34.2596C17.7151 33.5097 17.6633 32.7338 17.6633 31.958C17.6633 31.1821 17.7151 30.4063 17.8446 29.6305C18.2072 27.484 19.062 25.4151 20.3311 23.6565C21.2376 22.3893 22.3513 21.3032 23.6204 20.398C25.3817 19.1308 27.4537 18.2774 29.6034 17.9412C30.3545 17.8119 31.1057 17.7602 31.8827 17.7602C32.6597 17.7602 33.4108 17.8119 34.1619 17.9412C36.3116 18.2774 38.3837 19.1308 40.1449 20.398C41.414 21.3032 42.5278 22.4152 43.4343 23.6565C44.7034 25.4151 45.5581 27.484 45.9207 29.6305C46.0502 30.3805 46.102 31.1563 46.102 31.958C46.102 32.7338 46.0243 33.5097 45.9207 34.2596Z" fill="black"/>
<path d="M38.4879 26.2169L29.2932 34.9321L25.3305 30.8202C24.8384 30.303 24.0096 30.2771 23.4915 30.7943C22.9735 31.2857 22.9476 32.1133 23.4656 32.6305L28.3349 37.6734C28.5939 37.932 28.9306 38.0613 29.2673 38.0613C29.5781 38.0613 29.9149 37.932 30.1739 37.6993L40.3268 28.0789C40.8448 27.5875 40.8707 26.76 40.3786 26.2428C39.8347 25.7255 39.0318 25.6997 38.4879 26.2169Z" fill="black"/>
</svg>
